Coordinates
version=1
nRows=38
nColumns=12
inDegrees=yes

Units are S.I. units (second, meters, Newtons, ...)
Angles are in degrees

endheader
time	SC_y	SC_z	SC_x	AC_y	AC_z	AC_x	GH_y	GH_z	GH_yy	EL_x	PS_y
       0.0              -42.66          15.71          3.083          46.67         -5.067          9.401          68.68          59.35          15.17          84.28          67.24
  0.004818              -42.66           15.7          3.089          46.67         -5.067          9.401          68.67          59.35          15.17          84.28          67.24
  0.009636              -42.65           15.7          3.095          46.67         -5.067          9.402          68.66          59.35          15.16          84.27          67.25
   0.01445              -42.65           15.7          3.102          46.67         -5.068          9.402          68.65          59.35          15.16          84.26          67.25
   0.01927              -42.64           15.7          3.109          46.66         -5.068          9.402          68.64          59.35          15.15          84.25          67.25
   0.02409              -42.64          15.69          3.116          46.66         -5.068          9.403          68.62          59.35          15.15          84.24          67.25
   0.02891              -42.63          15.69          3.124          46.66         -5.068          9.403          68.61          59.35          15.14          84.24          67.25
   0.03373              -42.62          15.69          3.133          46.66         -5.069          9.404          68.59          59.36          15.14          84.23          67.25
   0.03854              -42.62          15.69          3.142          46.66         -5.069          9.404          68.57          59.36          15.13          84.22          67.25
   0.04336              -42.61          15.68          3.151          46.66          -5.07          9.405          68.55          59.36          15.12           84.2          67.26
   0.04818               -42.6          15.68          3.162          46.65          -5.07          9.405          68.53          59.36          15.12          84.19          67.26
     0.053              -42.59          15.67          3.173          46.65         -5.071          9.406          68.51          59.36          15.11          84.18          67.26
   0.05782              -42.58          15.67          3.185          46.65         -5.071          9.407          68.49          59.37           15.1          84.17          67.26
   0.06263              -42.57          15.66          3.198          46.64         -5.072          9.408          68.47          59.37          15.09          84.15          67.27
   0.06745              -42.56          15.66          3.212          46.64         -5.072          9.408          68.44          59.37          15.08          84.14          67.27
   0.07227              -42.55          15.65          3.228          46.64         -5.073          9.409          68.41          59.37          15.07          84.12          67.27
   0.07709              -42.54          15.65          3.244          46.63         -5.074           9.41          68.38          59.38          15.06           84.1          67.28
   0.08191              -42.53          15.64          3.263          46.63         -5.074          9.411          68.34          59.38          15.05          84.08          67.28
   0.08672              -42.51          15.63          3.282          46.63         -5.075          9.412           68.3          59.39          15.03          84.06          67.28
   0.09154              -42.49          15.63          3.304          46.62         -5.076          9.414          68.26          59.39          15.02          84.03          67.29
   0.09636              -42.48          15.62          3.328          46.62         -5.077          9.415          68.22           59.4           15.0          84.01          67.29
    0.1012              -42.46          15.61          3.354          46.61         -5.078          9.416          68.17           59.4          14.98          83.98           67.3
     0.106              -42.43           15.6          3.383           46.6         -5.079          9.418          68.11          59.41          14.96          83.94           67.3
    0.1108              -42.41          15.58          3.415           46.6         -5.081           9.42          68.05          59.41          14.94          83.91          67.31
    0.1156              -42.38          15.57          3.451          46.59         -5.082          9.422          67.98          59.42          14.92          83.87          67.32
    0.1205              -42.35          15.56          3.491          46.58         -5.084          9.424          67.91          59.43          14.89          83.82          67.33
    0.1253              -42.32          15.54          3.536          46.57         -5.086          9.427          67.82          59.44          14.86          83.77          67.33
    0.1301              -42.28          15.52          3.586          46.56         -5.088          9.429          67.73          59.45          14.82          83.71          67.34
    0.1349              -42.24           15.5          3.643          46.55          -5.09          9.433          67.62          59.46          14.78          83.65          67.36
    0.1397              -42.19          15.48          3.707          46.53         -5.093          9.436           67.5          59.47          14.74          83.58          67.37
    0.1445              -42.13          15.45          3.781          46.52         -5.096           9.44          67.35          59.49          14.69          83.49          67.38
    0.1494              -42.07          15.42          3.865           46.5           -5.1          9.445          67.19           59.5          14.63           83.4           67.4
    0.1542               -42.0          15.38          3.963          46.48         -5.104          9.451          67.01          59.52          14.56          83.29          67.42
     0.159              -41.91          15.34          4.076          46.45         -5.109          9.457          66.79          59.55          14.48          83.16          67.44
    0.1638              -41.81          15.29          4.209          46.42         -5.114          9.464          66.54          59.57          14.39          83.01          67.47
    0.1686              -41.69          15.24          4.365          46.39         -5.121          9.473          66.24          59.61          14.28          82.83           67.5
    0.1734              -41.55          15.17          4.551          46.35         -5.129          9.484          65.89          59.64          14.15          82.63          67.54
    0.1783              -41.38          15.09          4.773           46.3         -5.138          9.496          65.46          59.69          13.99          82.37          67.58
